#!OML:ASF G:\JayActor3\Patient Classification 1\Patient 1\Session 5\male.ASF
:FULLY-SPECIFIED
:DEGREES
465
root 33.9034 15.9212 -4.87831 -11.9741 90.7596 -31.5979
lowerback 40.8116 -2.70388 1.06411
upperback 10.0911 -1.68015 -1.59704
thorax -8.44003 -0.191209 -1.65113
lowerneck 0.551286 -0.139465 2.79157
upperneck -29.883 1.61958 1.32057
head -9.50111 0.905697 -0.25259
rclavicle 1.86858e-014 1.33186e-014
rhumerus -29.4005 -0.469037 -88.7098
rradius 51.6423
rwrist -7.76419
rhand -20.9901 -10.9294
rfingers 7.12502
rthumb 5.38386 -40.841
lclavicle 1.86858e-014 1.33186e-014
lhumerus -19.8281 5.89863 82.1313
lradius 39.4317
lwrist 25.0188
lhand -20.2741 11.7492
lfingers 7.12502
lthumb 6.07519 41.6421
rfemur -68.4913 4.09886 10.3099
rtibia 46.2789
rfoot 19.4719 -16.6248
rtoes 9.29706
lfemur -50.7031 10.6536 -24.5599
ltibia 69.4333
lfoot -1.08267 -6.19498
ltoes -24.4698
466
root 33.7739 15.9304 -4.9155 -21.3301 90.5481 -41.0275
lowerback 40.79 -2.61935 1.03512
upperback 10.0774 -1.59922 -1.62167
thorax -8.44624 -0.156465 -1.69532
lowerneck 0.550356 -0.142761 2.78974
upperneck -29.8998 1.61071 1.30189
head -9.50687 0.903818 -0.258233
rclavicle -3.18055e-015 -1.0138e-014
rhumerus -29.3715 -0.445692 -88.669
rradius 51.6762
rwrist -7.69984
rhand -21.0113 -10.9412
rfingers 7.12502
rthumb 5.36345 -40.8533
lclavicle -3.18055e-015 -1.0138e-014
lhumerus -19.8027 5.81431 82.093
lradius 39.3469
lwrist 24.9105
lhand -20.2211 11.6373
lfingers 7.12502
lthumb 6.12636 41.5287
rfemur -68.507 4.1376 10.0445
rtibia 45.3198
rfoot 20.1156 -17.4615
rtoes 9.96532
lfemur -51.1106 10.7167 -24.8262
ltibia 69.182
lfoot -1.24395 -6.15877
ltoes -24.148
467
root 33.6459 15.9358 -4.95339 -41.6321 90.3627 -61.4022
lowerback 40.7527 -2.54413 1.01584
upperback 10.0652 -1.52679 -1.64899
thorax -8.44653 -0.125796 -1.74399
lowerneck 0.537132 -0.140491 2.78707
upperneck -29.8967 1.60285 1.26555
head -9.50283 0.904145 -0.269699
rclavicle -3.29983e-014 -1.92821e-014
rhumerus -29.3417 -0.406496 -88.6258
rradius 51.6992
rwrist -7.61467
rhand -21.0133 -10.9389
rfingers 7.12502
rthumb 5.36149 -40.851
lclavicle -3.29983e-014 -1.92821e-014
lhumerus -19.8068 5.75556 82.0428
lradius 39.2955
lwrist 24.8118
lhand -20.1844 11.6419
lfingers 7.12502
lthumb 6.16177 41.5323
rfemur -68.5586 4.13115 9.82869
rtibia 44.5322
rfoot 20.6443 -17.9655
rtoes 10.1277
lfemur -51.4815 10.7756 -25.0942
ltibia 68.9206
lfoot -1.50823 -6.09568
ltoes -24.0089
468
root 33.5198 15.9363 -4.99106 -83.4891 90.2842 -103.323
lowerback 40.7084 -2.47663 0.999738
upperback 10.0544 -1.46254 -1.67602
thorax -8.44339 -0.0988888 -1.79066
lowerneck 0.527326 -0.135845 2.7868
upperneck -29.8907 1.59381 1.21369
head -9.49809 0.90495 -0.286865
rclavicle 7.95139e-016 1.98785e-015
rhumerus -29.3134 -0.359362 -88.5789
rradius 51.7167
rwrist -7.51915
rhand -20.9959 -10.9296
rfingers 7.12502
rthumb 5.37827 -40.8414
lclavicle 7.95139e-016 1.98785e-015
lhumerus -19.8409 5.71744 81.9803
lradius 39.2633
lwrist 24.731
lhand -20.1671 11.6758
lfingers 7.12502
lthumb 6.17846 41.5657
rfemur -68.6502 4.08067 9.67487
rtibia 43.9878
rfoot 20.9465 -18.047
rtoes 9.65294
lfemur -51.8255 10.838 -25.3638
ltibia 68.6764
lfoot -1.85413 -6.00578
ltoes -23.9797
469
root 33.3958 15.9309 -5.02772 -121.077 90.3856 -140.965
lowerback 40.6567 -2.41358 0.972313
upperback 10.0426 -1.40816 -1.70078
thorax -8.43892 -0.0766304 -1.825
lowerneck 0.529269 -0.126679 2.79197
upperneck -29.8806 1.58774 1.14906
head -9.49386 0.90733 -0.309652
rclavicle 1.59028e-014 3.04141e-014
rhumerus -29.2898 -0.306856 -88.5302
rradius 51.728
rwrist -7.42888
rhand -20.9661 -10.9164
rfingers 7.12502
rthumb 5.40707 -40.8274
lclavicle 1.59028e-014 3.04141e-014
lhumerus -19.9039 5.70602 81.9044
lradius 39.2372
lwrist 24.6672
lhand -20.1618 11.7395
lfingers 7.12502
lthumb 6.18365 41.6293
rfemur -68.7929 3.98208 9.59176
rtibia 43.754
rfoot 20.865 -17.715
rtoes 8.60396
lfemur -52.1648 10.9077 -25.6446
ltibia 68.4787
lfoot -2.25682 -5.89029
ltoes -24.0249
470
root 33.274 15.9188 -5.06272 -136.623 90.561 -156.553
lowerback 40.6003 -2.35858 0.934593
upperback 10.0301 -1.36703 -1.72243
thorax -8.43393 -0.0604097 -1.84529
lowerneck 0.546243 -0.115454 2.79901
upperneck -29.8677 1.58349 1.08134
head -9.4913 0.910091 -0.333993
rclavicle -1.19271e-014 -9.34288e-015
rhumerus -29.2734 -0.253213 -88.4807
rradius 51.7368
rwrist -7.35675
rhand -20.931 -10.9135
rfingers 7.12502
rthumb 5.44098 -40.8237
lclavicle -1.19271e-014 -9.34288e-015
lhumerus -19.9878 5.71762 81.8148
lradius 39.202
lwrist 24.6143
lhand -20.15 11.7986
lfingers 7.12502
lthumb 6.19502 41.688
rfemur -68.9892 3.82233 9.59363
rtibia 43.8865
rfoot 20.2711 -17.0321
rtoes 7.15307
lfemur -52.5203 10.9789 -25.937
ltibia 68.3548
lfoot -2.68182 -5.75707
ltoes -24.0891
471
root 33.1545 15.8998 -5.09527 -143.669 90.7378 -163.62
lowerback 40.5463 -2.30871 0.889909
upperback 10.0177 -1.33349 -1.73801
thorax -8.4293 -0.0475386 -1.85239
lowerneck 0.571385 -0.103231 2.80407
upperneck -29.843 1.58202 1.02366
head -9.48605 0.912811 -0.35458
rclavicle 7.55382e-015 6.16232e-015
rhumerus -29.2636 -0.206202 -88.4309
rradius 51.7403
rwrist -7.31055
rhand -20.9016 -10.9238
rfingers 7.12502
rthumb 5.46938 -40.8332
lclavicle 7.55382e-015 6.16232e-015
lhumerus -20.0824 5.74919 81.7137
lradius 39.1466
lwrist 24.5712
lhand -20.1344 11.8445
lfingers 7.12502
lthumb 6.21005 41.7335
rfemur -69.2321 3.61135 9.69603
rtibia 44.4146
rfoot 19.1129 -16.0628
rtoes 5.42507
lfemur -52.9063 11.0568 -26.225
ltibia 68.3249
lfoot -3.09776 -5.6184
ltoes -24.1337
